G75*
%MOIN*%
%OFA0B0*%
%FSLAX25Y25*%
%IPPOS*%
%LPD*%
%AMOC8*
5,1,8,0,0,1.08239X$1,22.5*
%
%ADD10C,0.00000*%
%ADD11C,0.05200*%
%ADD12OC8,0.06000*%
%ADD13C,0.03181*%
%ADD14C,0.01600*%
%ADD15C,0.01000*%
D10*
X0011350Y0008680D02*
X0120500Y0008680D01*
X0120500Y0059915D01*
X0120497Y0060175D01*
X0120487Y0060435D01*
X0120472Y0060695D01*
X0120450Y0060954D01*
X0120422Y0061212D01*
X0120387Y0061470D01*
X0120346Y0061727D01*
X0120299Y0061983D01*
X0120246Y0062238D01*
X0120187Y0062491D01*
X0120122Y0062743D01*
X0120051Y0062993D01*
X0119973Y0063241D01*
X0119890Y0063488D01*
X0119801Y0063732D01*
X0119705Y0063974D01*
X0119604Y0064214D01*
X0119498Y0064451D01*
X0119385Y0064686D01*
X0119267Y0064917D01*
X0119143Y0065146D01*
X0119014Y0065372D01*
X0118880Y0065595D01*
X0118740Y0065814D01*
X0118595Y0066030D01*
X0118444Y0066242D01*
X0118289Y0066450D01*
X0118128Y0066655D01*
X0117963Y0066856D01*
X0117793Y0067053D01*
X0117618Y0067245D01*
X0117439Y0067434D01*
X0117255Y0067618D01*
X0117066Y0067797D01*
X0116874Y0067972D01*
X0116677Y0068142D01*
X0116476Y0068307D01*
X0116271Y0068468D01*
X0116063Y0068623D01*
X0115851Y0068774D01*
X0115635Y0068919D01*
X0115416Y0069059D01*
X0115193Y0069193D01*
X0114967Y0069322D01*
X0114738Y0069446D01*
X0114507Y0069564D01*
X0114272Y0069677D01*
X0114035Y0069783D01*
X0113795Y0069884D01*
X0113553Y0069980D01*
X0113309Y0070069D01*
X0113062Y0070152D01*
X0112814Y0070230D01*
X0112564Y0070301D01*
X0112312Y0070366D01*
X0112059Y0070425D01*
X0111804Y0070478D01*
X0111548Y0070525D01*
X0111291Y0070566D01*
X0111033Y0070601D01*
X0110775Y0070629D01*
X0110516Y0070651D01*
X0110256Y0070666D01*
X0109996Y0070676D01*
X0109736Y0070679D01*
X0109736Y0070680D02*
X0011312Y0070680D01*
X0011075Y0070677D01*
X0010838Y0070669D01*
X0010601Y0070654D01*
X0010365Y0070634D01*
X0010129Y0070608D01*
X0009894Y0070577D01*
X0009660Y0070540D01*
X0009427Y0070497D01*
X0009195Y0070449D01*
X0008964Y0070395D01*
X0008734Y0070335D01*
X0008506Y0070270D01*
X0008280Y0070200D01*
X0008055Y0070124D01*
X0007833Y0070042D01*
X0007612Y0069956D01*
X0007393Y0069864D01*
X0007177Y0069766D01*
X0006963Y0069664D01*
X0006752Y0069556D01*
X0006544Y0069443D01*
X0006338Y0069326D01*
X0006135Y0069203D01*
X0005935Y0069075D01*
X0005738Y0068943D01*
X0005545Y0068806D01*
X0005355Y0068664D01*
X0005168Y0068518D01*
X0004985Y0068367D01*
X0004805Y0068212D01*
X0004630Y0068053D01*
X0004458Y0067889D01*
X0004291Y0067722D01*
X0004127Y0067550D01*
X0003968Y0067375D01*
X0003813Y0067195D01*
X0003662Y0067012D01*
X0003516Y0066825D01*
X0003374Y0066635D01*
X0003237Y0066442D01*
X0003105Y0066245D01*
X0002977Y0066045D01*
X0002854Y0065842D01*
X0002737Y0065636D01*
X0002624Y0065428D01*
X0002516Y0065217D01*
X0002414Y0065003D01*
X0002316Y0064787D01*
X0002224Y0064568D01*
X0002138Y0064347D01*
X0002056Y0064125D01*
X0001980Y0063900D01*
X0001910Y0063674D01*
X0001845Y0063446D01*
X0001785Y0063216D01*
X0001731Y0062985D01*
X0001683Y0062753D01*
X0001640Y0062520D01*
X0001603Y0062286D01*
X0001572Y0062051D01*
X0001546Y0061815D01*
X0001526Y0061579D01*
X0001511Y0061342D01*
X0001503Y0061105D01*
X0001500Y0060868D01*
X0001500Y0018530D01*
X0001503Y0018292D01*
X0001512Y0018054D01*
X0001526Y0017817D01*
X0001546Y0017579D01*
X0001572Y0017343D01*
X0001603Y0017107D01*
X0001641Y0016872D01*
X0001684Y0016638D01*
X0001732Y0016405D01*
X0001786Y0016173D01*
X0001846Y0015942D01*
X0001911Y0015713D01*
X0001982Y0015486D01*
X0002058Y0015261D01*
X0002140Y0015037D01*
X0002227Y0014816D01*
X0002320Y0014596D01*
X0002417Y0014379D01*
X0002520Y0014165D01*
X0002628Y0013952D01*
X0002741Y0013743D01*
X0002860Y0013536D01*
X0002983Y0013333D01*
X0003111Y0013132D01*
X0003244Y0012935D01*
X0003381Y0012740D01*
X0003523Y0012549D01*
X0003670Y0012362D01*
X0003821Y0012178D01*
X0003977Y0011998D01*
X0004137Y0011822D01*
X0004301Y0011650D01*
X0004470Y0011481D01*
X0004642Y0011317D01*
X0004818Y0011157D01*
X0004998Y0011001D01*
X0005182Y0010850D01*
X0005369Y0010703D01*
X0005560Y0010561D01*
X0005755Y0010424D01*
X0005952Y0010291D01*
X0006153Y0010163D01*
X0006356Y0010040D01*
X0006563Y0009921D01*
X0006772Y0009808D01*
X0006985Y0009700D01*
X0007199Y0009597D01*
X0007416Y0009500D01*
X0007636Y0009407D01*
X0007857Y0009320D01*
X0008081Y0009238D01*
X0008306Y0009162D01*
X0008533Y0009091D01*
X0008762Y0009026D01*
X0008993Y0008966D01*
X0009225Y0008912D01*
X0009458Y0008864D01*
X0009692Y0008821D01*
X0009927Y0008783D01*
X0010163Y0008752D01*
X0010399Y0008726D01*
X0010637Y0008706D01*
X0010874Y0008692D01*
X0011112Y0008683D01*
X0011350Y0008680D01*
D11*
X0043931Y0018220D03*
X0062931Y0018220D03*
D12*
X0019500Y0029680D03*
X0009500Y0029680D03*
X0009500Y0039680D03*
X0019500Y0039680D03*
X0019500Y0049680D03*
X0009500Y0049680D03*
X0009500Y0059680D03*
X0019500Y0059680D03*
D13*
X0031500Y0056680D03*
X0042500Y0057680D03*
X0050300Y0051280D03*
X0054500Y0051280D03*
X0054300Y0047280D03*
X0050300Y0047280D03*
X0061631Y0055320D03*
X0065500Y0058680D03*
X0074500Y0064680D03*
X0067000Y0068180D03*
X0053231Y0060520D03*
X0041431Y0065220D03*
X0022000Y0068180D03*
X0014500Y0068180D03*
X0029500Y0038180D03*
X0037000Y0038180D03*
X0041500Y0036680D03*
X0049431Y0037020D03*
X0037000Y0030680D03*
X0029500Y0030680D03*
X0029500Y0023180D03*
X0022000Y0023180D03*
X0014500Y0023180D03*
X0007000Y0023180D03*
X0007000Y0015680D03*
X0014500Y0015680D03*
X0022000Y0015680D03*
X0029500Y0015680D03*
X0037000Y0015680D03*
X0037000Y0023180D03*
X0044300Y0023380D03*
X0052000Y0023180D03*
X0052000Y0015680D03*
X0067000Y0023180D03*
X0074500Y0023180D03*
X0082000Y0023180D03*
X0086100Y0024069D03*
X0086100Y0028006D03*
X0082000Y0030680D03*
X0086100Y0031943D03*
X0092600Y0029930D03*
X0086100Y0035880D03*
X0086100Y0039880D03*
X0086100Y0043880D03*
X0086100Y0047880D03*
X0086100Y0051880D03*
X0067000Y0038180D03*
X0074500Y0030680D03*
X0086100Y0020132D03*
X0086100Y0016195D03*
X0082000Y0015680D03*
X0086100Y0012258D03*
X0074500Y0015680D03*
D14*
X0087500Y0029680D02*
X0092350Y0029680D01*
X0092600Y0029930D01*
X0087500Y0029680D02*
X0086100Y0031080D01*
X0086100Y0035880D01*
X0061500Y0040680D02*
X0061500Y0055189D01*
X0061631Y0055320D01*
X0054885Y0062065D01*
X0053340Y0060520D01*
X0053231Y0060520D01*
X0054885Y0062065D02*
X0051731Y0065220D01*
X0041431Y0065220D01*
X0061500Y0040680D02*
X0057840Y0037020D01*
X0049431Y0037020D01*
D15*
X0051501Y0039320D02*
X0051181Y0039640D01*
X0050045Y0040110D01*
X0048816Y0040110D01*
X0047680Y0039640D01*
X0046811Y0038770D01*
X0046340Y0037635D01*
X0046340Y0036405D01*
X0046811Y0035269D01*
X0047680Y0034400D01*
X0048816Y0033929D01*
X0050045Y0033929D01*
X0051181Y0034400D01*
X0051501Y0034720D01*
X0058793Y0034720D01*
X0062453Y0038380D01*
X0063800Y0039727D01*
X0063800Y0053118D01*
X0064251Y0053569D01*
X0064721Y0054705D01*
X0064721Y0055935D01*
X0064251Y0057070D01*
X0063381Y0057940D01*
X0062245Y0058410D01*
X0061793Y0058410D01*
X0057185Y0063018D01*
X0055838Y0064365D01*
X0052683Y0067520D01*
X0043501Y0067520D01*
X0043181Y0067840D01*
X0042045Y0068310D01*
X0040816Y0068310D01*
X0039680Y0067840D01*
X0038811Y0066970D01*
X0038340Y0065835D01*
X0038340Y0064605D01*
X0038811Y0063469D01*
X0039680Y0062600D01*
X0040816Y0062129D01*
X0042045Y0062129D01*
X0043181Y0062600D01*
X0043501Y0062920D01*
X0050778Y0062920D01*
X0051019Y0062679D01*
X0050611Y0062270D01*
X0050140Y0061135D01*
X0050140Y0059905D01*
X0050611Y0058769D01*
X0051480Y0057900D01*
X0052616Y0057429D01*
X0053845Y0057429D01*
X0054981Y0057900D01*
X0055390Y0058308D01*
X0058540Y0055158D01*
X0058540Y0054705D01*
X0059011Y0053569D01*
X0059200Y0053380D01*
X0059200Y0041632D01*
X0056887Y0039320D01*
X0051501Y0039320D01*
X0051172Y0039644D02*
X0057212Y0039644D01*
X0058210Y0040642D02*
X0024000Y0040642D01*
X0024000Y0041544D02*
X0021364Y0044180D01*
X0017636Y0044180D01*
X0015000Y0041544D01*
X0015000Y0037816D01*
X0017636Y0035180D01*
X0021364Y0035180D01*
X0024000Y0037816D01*
X0024000Y0041544D01*
X0023903Y0041641D02*
X0059200Y0041641D01*
X0059200Y0042639D02*
X0022904Y0042639D01*
X0021906Y0043638D02*
X0059200Y0043638D01*
X0059200Y0044637D02*
X0003000Y0044637D01*
X0003000Y0045635D02*
X0007181Y0045635D01*
X0007636Y0045180D02*
X0011364Y0045180D01*
X0014000Y0047816D01*
X0014000Y0051544D01*
X0011364Y0054180D01*
X0007636Y0054180D01*
X0005000Y0051544D01*
X0005000Y0047816D01*
X0007636Y0045180D01*
X0007636Y0044180D02*
X0005000Y0041544D01*
X0005000Y0037816D01*
X0007636Y0035180D01*
X0011364Y0035180D01*
X0014000Y0037816D01*
X0014000Y0041544D01*
X0011364Y0044180D01*
X0007636Y0044180D01*
X0007094Y0043638D02*
X0003000Y0043638D01*
X0003000Y0042639D02*
X0006096Y0042639D01*
X0005097Y0041641D02*
X0003000Y0041641D01*
X0003000Y0040642D02*
X0005000Y0040642D01*
X0005000Y0039644D02*
X0003000Y0039644D01*
X0003000Y0038645D02*
X0005000Y0038645D01*
X0005169Y0037647D02*
X0003000Y0037647D01*
X0003000Y0036648D02*
X0006167Y0036648D01*
X0007166Y0035650D02*
X0003000Y0035650D01*
X0003000Y0034651D02*
X0047428Y0034651D01*
X0046653Y0035650D02*
X0021834Y0035650D01*
X0022833Y0036648D02*
X0046340Y0036648D01*
X0046345Y0037647D02*
X0023831Y0037647D01*
X0024000Y0038645D02*
X0046759Y0038645D01*
X0047690Y0039644D02*
X0024000Y0039644D01*
X0017166Y0035650D02*
X0011834Y0035650D01*
X0012833Y0036648D02*
X0016167Y0036648D01*
X0015169Y0037647D02*
X0013831Y0037647D01*
X0014000Y0038645D02*
X0015000Y0038645D01*
X0015000Y0039644D02*
X0014000Y0039644D01*
X0014000Y0040642D02*
X0015000Y0040642D01*
X0015097Y0041641D02*
X0013903Y0041641D01*
X0012904Y0042639D02*
X0016096Y0042639D01*
X0017094Y0043638D02*
X0011906Y0043638D01*
X0011819Y0045635D02*
X0017181Y0045635D01*
X0017636Y0045180D02*
X0021364Y0045180D01*
X0024000Y0047816D01*
X0024000Y0051544D01*
X0021364Y0054180D01*
X0017636Y0054180D01*
X0015000Y0051544D01*
X0015000Y0047816D01*
X0017636Y0045180D01*
X0016182Y0046634D02*
X0012818Y0046634D01*
X0013816Y0047632D02*
X0015184Y0047632D01*
X0015000Y0048631D02*
X0014000Y0048631D01*
X0014000Y0049629D02*
X0015000Y0049629D01*
X0015000Y0050628D02*
X0014000Y0050628D01*
X0013918Y0051626D02*
X0015082Y0051626D01*
X0016081Y0052625D02*
X0012919Y0052625D01*
X0011921Y0053623D02*
X0017079Y0053623D01*
X0017636Y0055180D02*
X0021364Y0055180D01*
X0024000Y0057816D01*
X0024000Y0061544D01*
X0021364Y0064180D01*
X0017636Y0064180D01*
X0015000Y0061544D01*
X0015000Y0057816D01*
X0017636Y0055180D01*
X0017196Y0055620D02*
X0011804Y0055620D01*
X0011364Y0055180D02*
X0010000Y0055180D01*
X0010000Y0059180D01*
X0010000Y0060180D01*
X0009000Y0060180D01*
X0009000Y0064180D01*
X0007636Y0064180D01*
X0005000Y0061544D01*
X0005000Y0060180D01*
X0009000Y0060180D01*
X0009000Y0059180D01*
X0005000Y0059180D01*
X0005000Y0057816D01*
X0007636Y0055180D01*
X0009000Y0055180D01*
X0009000Y0059180D01*
X0010000Y0059180D01*
X0014000Y0059180D01*
X0014000Y0057816D01*
X0011364Y0055180D01*
X0010000Y0055620D02*
X0009000Y0055620D01*
X0009000Y0056619D02*
X0010000Y0056619D01*
X0010000Y0057617D02*
X0009000Y0057617D01*
X0009000Y0058616D02*
X0010000Y0058616D01*
X0010000Y0059614D02*
X0015000Y0059614D01*
X0015000Y0060613D02*
X0014000Y0060613D01*
X0014000Y0060180D02*
X0014000Y0061544D01*
X0011364Y0064180D01*
X0010000Y0064180D01*
X0010000Y0060180D01*
X0014000Y0060180D01*
X0013932Y0061611D02*
X0015068Y0061611D01*
X0016066Y0062610D02*
X0012934Y0062610D01*
X0011935Y0063608D02*
X0017065Y0063608D01*
X0021935Y0063608D02*
X0038753Y0063608D01*
X0038340Y0064607D02*
X0003895Y0064607D01*
X0003906Y0064641D02*
X0005434Y0066745D01*
X0007538Y0068274D01*
X0010011Y0069077D01*
X0011312Y0069180D01*
X0084500Y0069180D01*
X0084500Y0054680D01*
X0095500Y0054680D01*
X0095500Y0010180D01*
X0011350Y0010180D01*
X0010044Y0010282D01*
X0007559Y0011090D01*
X0005446Y0012625D01*
X0003910Y0014739D01*
X0003103Y0017223D01*
X0003000Y0018530D01*
X0003000Y0060868D01*
X0003102Y0062168D01*
X0003906Y0064641D01*
X0003570Y0063608D02*
X0007065Y0063608D01*
X0006066Y0062610D02*
X0003246Y0062610D01*
X0003058Y0061611D02*
X0005068Y0061611D01*
X0005000Y0060613D02*
X0003000Y0060613D01*
X0003000Y0059614D02*
X0009000Y0059614D01*
X0009500Y0059680D02*
X0014500Y0054680D01*
X0029500Y0054680D01*
X0031500Y0056680D01*
X0024000Y0058616D02*
X0050764Y0058616D01*
X0052162Y0057617D02*
X0023801Y0057617D01*
X0022803Y0056619D02*
X0057079Y0056619D01*
X0056081Y0057617D02*
X0054299Y0057617D01*
X0058078Y0055620D02*
X0021804Y0055620D01*
X0021921Y0053623D02*
X0058988Y0053623D01*
X0059200Y0052625D02*
X0022919Y0052625D01*
X0023918Y0051626D02*
X0059200Y0051626D01*
X0059200Y0050628D02*
X0024000Y0050628D01*
X0024000Y0049629D02*
X0059200Y0049629D01*
X0059200Y0048631D02*
X0024000Y0048631D01*
X0023816Y0047632D02*
X0059200Y0047632D01*
X0059200Y0046634D02*
X0022818Y0046634D01*
X0021819Y0045635D02*
X0059200Y0045635D01*
X0063800Y0045635D02*
X0095500Y0045635D01*
X0095500Y0044637D02*
X0063800Y0044637D01*
X0063800Y0043638D02*
X0095500Y0043638D01*
X0095500Y0042639D02*
X0063800Y0042639D01*
X0063800Y0041641D02*
X0095500Y0041641D01*
X0095500Y0040642D02*
X0063800Y0040642D01*
X0063717Y0039644D02*
X0095500Y0039644D01*
X0095500Y0038645D02*
X0062718Y0038645D01*
X0061720Y0037647D02*
X0095500Y0037647D01*
X0095500Y0036648D02*
X0060721Y0036648D01*
X0059723Y0035650D02*
X0095500Y0035650D01*
X0095500Y0034651D02*
X0051433Y0034651D01*
X0046253Y0021696D02*
X0044746Y0022320D01*
X0043115Y0022320D01*
X0041608Y0021696D01*
X0040455Y0020542D01*
X0039831Y0019035D01*
X0039831Y0017404D01*
X0040455Y0015897D01*
X0041608Y0014744D01*
X0043115Y0014120D01*
X0044746Y0014120D01*
X0046253Y0014744D01*
X0047407Y0015897D01*
X0048031Y0017404D01*
X0048031Y0019035D01*
X0047407Y0020542D01*
X0046253Y0021696D01*
X0046278Y0021671D02*
X0060583Y0021671D01*
X0060608Y0021696D02*
X0059455Y0020542D01*
X0058831Y0019035D01*
X0058831Y0017404D01*
X0059455Y0015897D01*
X0060608Y0014744D01*
X0062115Y0014120D01*
X0063746Y0014120D01*
X0065253Y0014744D01*
X0066407Y0015897D01*
X0067031Y0017404D01*
X0067031Y0019035D01*
X0066407Y0020542D01*
X0065253Y0021696D01*
X0063746Y0022320D01*
X0062115Y0022320D01*
X0060608Y0021696D01*
X0059585Y0020672D02*
X0047277Y0020672D01*
X0047766Y0019674D02*
X0059095Y0019674D01*
X0058831Y0018675D02*
X0048031Y0018675D01*
X0048031Y0017677D02*
X0058831Y0017677D01*
X0059131Y0016678D02*
X0047730Y0016678D01*
X0047189Y0015680D02*
X0059673Y0015680D01*
X0060760Y0014681D02*
X0046101Y0014681D01*
X0041760Y0014681D02*
X0003952Y0014681D01*
X0003604Y0015680D02*
X0040673Y0015680D01*
X0040131Y0016678D02*
X0003280Y0016678D01*
X0003067Y0017677D02*
X0039831Y0017677D01*
X0039831Y0018675D02*
X0003000Y0018675D01*
X0003000Y0019674D02*
X0040095Y0019674D01*
X0040585Y0020672D02*
X0003000Y0020672D01*
X0003000Y0021671D02*
X0041583Y0021671D01*
X0024000Y0027816D02*
X0021364Y0025180D01*
X0017636Y0025180D01*
X0015000Y0027816D01*
X0015000Y0031544D01*
X0017636Y0034180D01*
X0021364Y0034180D01*
X0024000Y0031544D01*
X0024000Y0027816D01*
X0023846Y0027662D02*
X0095500Y0027662D01*
X0095500Y0028660D02*
X0024000Y0028660D01*
X0024000Y0029659D02*
X0095500Y0029659D01*
X0095500Y0030657D02*
X0024000Y0030657D01*
X0023888Y0031656D02*
X0095500Y0031656D01*
X0095500Y0032654D02*
X0022889Y0032654D01*
X0021891Y0033653D02*
X0095500Y0033653D01*
X0095500Y0026663D02*
X0022848Y0026663D01*
X0021849Y0025665D02*
X0095500Y0025665D01*
X0095500Y0024666D02*
X0003000Y0024666D01*
X0003000Y0023668D02*
X0095500Y0023668D01*
X0095500Y0022669D02*
X0003000Y0022669D01*
X0003000Y0025665D02*
X0007151Y0025665D01*
X0007636Y0025180D02*
X0011364Y0025180D01*
X0014000Y0027816D01*
X0014000Y0031544D01*
X0011364Y0034180D01*
X0007636Y0034180D01*
X0005000Y0031544D01*
X0005000Y0027816D01*
X0007636Y0025180D01*
X0006152Y0026663D02*
X0003000Y0026663D01*
X0003000Y0027662D02*
X0005154Y0027662D01*
X0005000Y0028660D02*
X0003000Y0028660D01*
X0003000Y0029659D02*
X0005000Y0029659D01*
X0005000Y0030657D02*
X0003000Y0030657D01*
X0003000Y0031656D02*
X0005112Y0031656D01*
X0006111Y0032654D02*
X0003000Y0032654D01*
X0003000Y0033653D02*
X0007109Y0033653D01*
X0011891Y0033653D02*
X0017109Y0033653D01*
X0016111Y0032654D02*
X0012889Y0032654D01*
X0013888Y0031656D02*
X0015112Y0031656D01*
X0015000Y0030657D02*
X0014000Y0030657D01*
X0014000Y0029659D02*
X0015000Y0029659D01*
X0015000Y0028660D02*
X0014000Y0028660D01*
X0013846Y0027662D02*
X0015154Y0027662D01*
X0016152Y0026663D02*
X0012848Y0026663D01*
X0011849Y0025665D02*
X0017151Y0025665D01*
X0004677Y0013683D02*
X0095500Y0013683D01*
X0095500Y0012684D02*
X0005403Y0012684D01*
X0006739Y0011686D02*
X0095500Y0011686D01*
X0095500Y0010687D02*
X0008798Y0010687D01*
X0065101Y0014681D02*
X0095500Y0014681D01*
X0095500Y0015680D02*
X0066189Y0015680D01*
X0066730Y0016678D02*
X0095500Y0016678D01*
X0095500Y0017677D02*
X0067031Y0017677D01*
X0067031Y0018675D02*
X0095500Y0018675D01*
X0095500Y0019674D02*
X0066766Y0019674D01*
X0066277Y0020672D02*
X0095500Y0020672D01*
X0095500Y0021671D02*
X0065278Y0021671D01*
X0063800Y0046634D02*
X0095500Y0046634D01*
X0095500Y0047632D02*
X0063800Y0047632D01*
X0063800Y0048631D02*
X0095500Y0048631D01*
X0095500Y0049629D02*
X0063800Y0049629D01*
X0063800Y0050628D02*
X0095500Y0050628D01*
X0095500Y0051626D02*
X0063800Y0051626D01*
X0063800Y0052625D02*
X0095500Y0052625D01*
X0095500Y0053623D02*
X0064273Y0053623D01*
X0064687Y0054622D02*
X0095500Y0054622D01*
X0086100Y0051880D02*
X0078300Y0051880D01*
X0076500Y0053680D01*
X0076500Y0062680D01*
X0074500Y0064680D01*
X0084500Y0064607D02*
X0055596Y0064607D01*
X0056595Y0063608D02*
X0084500Y0063608D01*
X0084500Y0062610D02*
X0057594Y0062610D01*
X0058592Y0061611D02*
X0084500Y0061611D01*
X0084500Y0060613D02*
X0059591Y0060613D01*
X0060589Y0059614D02*
X0084500Y0059614D01*
X0084500Y0058616D02*
X0061588Y0058616D01*
X0063704Y0057617D02*
X0084500Y0057617D01*
X0084500Y0056619D02*
X0064438Y0056619D01*
X0064721Y0055620D02*
X0084500Y0055620D01*
X0084500Y0065605D02*
X0054598Y0065605D01*
X0053599Y0066604D02*
X0084500Y0066604D01*
X0084500Y0067602D02*
X0043419Y0067602D01*
X0039442Y0067602D02*
X0006614Y0067602D01*
X0005332Y0066604D02*
X0038659Y0066604D01*
X0038340Y0065605D02*
X0004606Y0065605D01*
X0009000Y0063608D02*
X0010000Y0063608D01*
X0010000Y0062610D02*
X0009000Y0062610D01*
X0009000Y0061611D02*
X0010000Y0061611D01*
X0010000Y0060613D02*
X0009000Y0060613D01*
X0005000Y0058616D02*
X0003000Y0058616D01*
X0003000Y0057617D02*
X0005199Y0057617D01*
X0006197Y0056619D02*
X0003000Y0056619D01*
X0003000Y0055620D02*
X0007196Y0055620D01*
X0007079Y0053623D02*
X0003000Y0053623D01*
X0003000Y0052625D02*
X0006081Y0052625D01*
X0005082Y0051626D02*
X0003000Y0051626D01*
X0003000Y0050628D02*
X0005000Y0050628D01*
X0005000Y0049629D02*
X0003000Y0049629D01*
X0003000Y0048631D02*
X0005000Y0048631D01*
X0005184Y0047632D02*
X0003000Y0047632D01*
X0003000Y0046634D02*
X0006182Y0046634D01*
X0003000Y0054622D02*
X0058575Y0054622D01*
X0050261Y0059614D02*
X0024000Y0059614D01*
X0024000Y0060613D02*
X0050140Y0060613D01*
X0050338Y0061611D02*
X0023932Y0061611D01*
X0022934Y0062610D02*
X0039670Y0062610D01*
X0043191Y0062610D02*
X0050950Y0062610D01*
X0084500Y0068601D02*
X0008545Y0068601D01*
X0014000Y0058616D02*
X0015000Y0058616D01*
X0015199Y0057617D02*
X0013801Y0057617D01*
X0012803Y0056619D02*
X0016197Y0056619D01*
M02*
