%
M48
M72
T01C0.01181
T02C0.03200
T03C0.04000
%
T01
X92600Y29930
X86100Y47880
X86100Y51880
X86100Y43880
X86100Y39880
X86100Y35880
X74500Y64680
X65500Y58680
X41500Y36680
X42500Y57680
X31500Y56680
X50300Y51280
X50300Y47280
X54500Y51280
X54300Y47280
X7000Y23180
X7000Y15680
X14500Y15680
X14500Y23180
X22000Y23180
X22000Y15680
X29500Y15680
X29500Y23180
X29500Y30680
X29500Y38180
X37000Y38180
X37000Y30680
X37000Y23180
X37000Y15680
X52000Y15680
X52000Y23180
X44300Y23380
X67000Y23180
X74500Y23180
X74500Y15680
X82000Y15680
X82000Y23180
X82000Y30680
X74500Y30680
X67000Y38180
X67000Y68180
X22000Y68180
X14500Y68180
X86100Y31943
X86100Y28006
X86100Y24069
X86100Y20132
X86100Y16195
X86100Y12258
X53231Y60520
X61631Y55320
X49431Y37020
X41431Y65220
T02
X43931Y18220
X62931Y18220
T03
X9500Y59680
X19500Y59680
X9500Y49680
X19500Y49680
X9500Y39680
X19500Y39680
X9500Y29680
X19500Y29680
M30
